<?xml version="1.0" encoding="utf-8"?>
<!-- Generator: Adobe Illustrator 25.0.0, SVG Export Plug-In . SVG Version: 6.00 Build 0)  -->
<svg version="1.1" id="Layer_1" xmlns="http://www.w3.org/2000/svg" xmlns:xlink="http://www.w3.org/1999/xlink" x="0px" y="0px"
	 viewBox="0 0 314.2 314.2" style="enable-background:new 0 0 314.2 314.2;" xml:space="preserve">
<style type="text/css">
	.st0{fill:#CB0C9F;}
</style>
<g id="list-6246" transform="translate(5016.96 1432.957)">
	<g id="Group_2377" transform="translate(-126.036 -126.036)">
		<path id="Path_3868" class="st0" d="M-4625.8-992.8h-216.1c-27.1,0-49-22-49-49v-216.1c0-27.1,22-49,49-49h216.1
			c27.1,0,49,22,49,49v216.1C-4576.8-1014.7-4598.7-992.8-4625.8-992.8z M-4841.9-1279c-11.7,0-21.1,9.5-21.1,21.1v216.1
			c0,11.7,9.5,21.1,21.1,21.1h216.1c11.7,0,21.1-9.5,21.1-21.1v-216.1c0-11.7-9.5-21.1-21.1-21.1H-4841.9z"/>
		<path id="Path_3869" class="st0" d="M-4648.4-1204.2h-171c-7.7,0.1-14-6.1-14.1-13.8c-0.1-7.7,6.1-14,13.8-14.1c0.1,0,0.2,0,0.2,0
			h171c7.7,0,14,6.3,14,14S-4640.7-1204.2-4648.4-1204.2z"/>
		<path id="Path_3870" class="st0" d="M-4648.4-1135.9h-171c-7.7,0-14-6.3-14-14c0-7.7,6.3-14,14-14h171c7.7,0.1,13.9,6.4,13.8,14.1
			C-4634.6-1142.1-4640.8-1135.9-4648.4-1135.9z"/>
		<path id="Path_3871" class="st0" d="M-4648.4-1067.6h-171c-7.7,0-14-6.3-14-14c0-7.7,6.3-14,14-14h171c7.7,0.1,13.9,6.4,13.8,14.1
			C-4634.6-1073.8-4640.8-1067.6-4648.4-1067.6z"/>
	</g>
</g>
</svg>
